<?xml version="1.0" encoding="UTF-8"?>
<svg xmlns="http://www.w3.org/2000/svg" version="1.1" viewBox="0 0 1080 1080">
  <defs>
    <style>
      .cls-1 {
        fill: #333;
      }

      .cls-2 {
        fill: #693c26;
      }

      .cls-3 {
        fill: #2d9359;
      }
    </style>
  </defs>
  <!-- Generator: Adobe Illustrator 28.7.1, SVG Export Plug-In . SVG Version: 1.2.0 Build 142)  -->
  <g>
    <g id="_Слой_1" data-name="Слой_1">
      <g>
        <g>
          <path class="cls-3" d="M1537.4,213.7c65.8,26,97.5,50,144.4,76,5.4-1.9,7.6-30.5,10.9-47,.8,115.5,0,557.9.2,681.2,0,12.3.2,24.5-.3,36.8.3,15.3-12,23.6-15.4,37.5-2.7,10.9,13.2,35.1,13.2,35.1,0,0-21.6-15.8-22.9-35.6-17.2,15.5-1.2,27.6-5.9,35.7,0,0-12.1-21-11.6-28,.7-10.9,9.9-17.1,17.5-23.6,11.7-9.9,13.1-19.3,14.1-33.7-20.3,20.6-46.8,22.8-71,36.4-23,14.8-14.7,49.6-14.7,49.6,0,0-7.1-9.6-8.1-13.4-17.7-59.4,51.7-49.1,69.2-90.9-18.4,11.1-27.8,13.6-48.3,18.9-85.3,16.7-34.2,70.5-107.1,87.3,44.2-27.6,23.6-57,52.1-88.3-20.2-1.2-55.7.6-67.5,18.2-16,23.8,19.4,26-4.5,57.1,4.4-16.5,5.2-20.2-6-33.9-26.3,11.6-26.3,15-16.4,40.9-14.4-14.2-20.3-30.3.2-42.8,9-5.1,10.8-5.5,11.1-15.9-38.8,8.4-62.9-7.4-94.3,23.6,15-37.1,52.5-28.5,82.7-36.4,14.3-4,28.8-20.4,46-26.3,54.1-13.3,109.5-12.7,135.1-71.9,49.1-107.5,17.6-234.6-87.6-292.7-42.5-25.1-86.8-57-102-106.4,23.3,28,50,61,86,73-5.6-21.4-10.3-27-9.8-51,8.4,15.5,14.4,35.9,27.8,50.1,19.2,20,54.9,46,82.3,49.5,37,4.7,31.2-65.4,24.3-86.2-12.3-37.4-47.8-64.5-74.1-92,9.9,2.5,72.2,42.6,79.1,28,12.4-25.8,14.8-88.3-.6-113.2-29.2-46.2-84.1-76.7-128.3-105.5Z"/>
          <path class="cls-3" d="M1577.9,424.7c-36.4-13.2-33-13.5-45.8-45,1.5,10.3,3.8,18.6,6.6,28.5-6.6-2.9-13.8-5.7-20.5-8.4-8-11.2-9.8-18-14.4-31,1.3,9.3,4,19.4,6.2,28.6-24-7.8-21.4-6.9-33.3-28.4,1.8,6.2,3.8,12.3,6.3,18.2-16.8-4.2-19.5-5.4-28.2-20.1.7,3.9.9,5.7,1.3,9.2-5.3-1.9-26.5-7.8-26.5-7.8,3.1,2.5,27.4,9.9,26.4,12.9-1.7,1.9-6.3,3.7-9,5,16.8-4.5,18.2-2.2,34.3,5-7.4,3.4-14.8,6.6-21.9,10.6,8.6-2.9,17.2-5.8,25.7-8.7,6.1,1.6,19,7.1,25.4,9.7-6,2.2-23.5,10-28.4,13.8l.5.3c11.1-4.6,22.6-8.1,34-11.7,6.5,2,15.9,6.4,22.3,9.3-11.5,5-22.5,10.9-33.1,17.6,13-4.8,25.4-10.4,38.6-15.1,8,2.5,23.6,8.7,31.2,12.2-39,36.4-103.6,25-133.1-17.8-15.4-21.6-26-37.5-45.6-56.5,73.7-3.5,165.3-31.8,180.9,69.8Z"/>
          <path class="cls-3" d="M1459.8,345"/>
          <path class="cls-3" d="M1459.8,345"/>
          <path class="cls-3" d="M1687.7,216.3c-7.1,13.4-15.6,22.9-27.8,31.6-1.3-12.2-2.5-23.3-2.5-35.5,7.8-9.7,16-17.1,24-26.4-9.8,6.7-15.8,11.3-24.7,19.3-.5-7.4-.5-15.4-.6-22.8,5.3-8.2,15.2-17.8,21.7-26-7.5,6-15,12.9-22.2,19.3v-27.3c5.1-6.6,10.8-12.4,15.9-19.4-4.9,3.7-11.2,10-15.8,14.3-.8-16.9-1.5-19.8,4.9-35.2-1.3,1.8-3.6,5.5-5.4,6.2-1.4-1.6-3.8-23.8-3.8-23.8-.5,4.8,1,18.1,1.2,24.4-2.7-1.8-3.8-3.9-6.6-5.5,6.7,8.2,8.3,19.9,6.2,30.1,0,0-8.6-7.4-13.3-11.3,3.3,4.4,7.8,9.3,11.7,13.1,2.3,3,.8,23.5.6,28.9-5.6-6.5-14.9-14.1-22.2-18.6,22.5,23.5,23.1,22.8,23,55.3l-23.1-20.2c24.2,29.6,24.8,19.1,26.9,61.2-63.8-32.1-47.2-108-21.8-160.2,4.1-10.2,7.9-24.1,10.9-34.7,34.4,44.2,72.1,106.7,42.9,162.8Z"/>
          <path class="cls-3" d="M1477.4,636.9c-34.9,52.5-87.5,35.2-139.6,45.6,26.8-71.5,65.2-146.2,155.3-112.6-28.1,21.6-36.7,23.1-69.8,19.7,9.2,3.9,19.2,5.3,29,6.8-33,25.9-22.3,16.3-59.8,19.5l25.6,4.7c-8.1,8.4-18.9,17.7-30.9,17,3.1,1.2,3.3.6,4.3,2.8-3.9,6.5-14.3,11.2-21.7,12.6l2.1,1.1c-.7,2.2-1.3,2.5-2.9,4.3,3.5.8,19.8-12.1,24.6-15,.8,4-.2,9-.8,13.2,6.9-20.1,10.7-20.7,28.9-31.7-1,9-2.4,18.3-3.6,27.3,9-28.2,8.3-34.9,35.8-49.5-2.7,8.9-5.1,22.2-4.2,31.4,7.5-35,15.5-41.3,45.2-61,1,22.6-5.2,44.8-17.7,63.7Z"/>
          <path class="cls-3" d="M1488.1,742c-7.2-56-5.9-142.8,72.1-139.2-11.3,22.5-21.2,31.6-44.8,38.6v1c7.6-.5,15.1-4.3,22.4-5.1l.3.9c-14.8,28-10.2,18.5-35.3,32.8,7.2-1.7,13.1-3.8,20.1-6.1-2.7,6-8,15.8-11.2,21.4l-13,6.2c3.7-.8,7.9-2.1,11.5-3.2-2.3,6.1-5.1,10.9-7.2,17.4,1.9-3,4-7.5,6.6-9.2l1.1.4.8,2.1c0-11.4,4.8-17.4,11.3-26.5.3,5.2.9,8.9,3.1,13.6,1.1-1.1-.9-15.6,0-18.5,2.6-8.3,10.8-19.3,15.6-26.5.3,9.1,2.3,19.1,4.8,27.9-1.4-31.4-.5-38.5,17.1-64.9,37.8,71.1-34.9,98.5-75.5,137.2Z"/>
          <path class="cls-3" d="M1532,629.2l.4.7c-.4,0-.8,0-1.2-.2l.8-.5Z"/>
          <path class="cls-3" d="M1532.5,629.9h0c0,0,0,0,0,0,0,0,0,0,0,0Z"/>
          <path class="cls-3" d="M1491.5,223.8c-1.6,7.5,0,30.2,1.4,38.7-6.5-5.3-15.6-12.2-21.7-17.7-1.2-4.6-7.2-33.3-7.6-33.7-.6,6.8.7,20.4,1.3,27.4-19.3-15.5-20.6-14.8-26.8-39.2.2,6.4.6,11.2,1.3,17.6-5.2-3.5-33.3-22.7-36.6-24.7,2.3,4.4,27.7,21.1,31.8,27.1-5.7,1.2-11.3,1.6-16.7,2.9,6.6.3,15.7,0,22,.4,7.2,6.4,14.3,12.9,21.2,19.6-11.5-.5-19.9,0-31.2,2.9,35.3.4,35.1-1.3,61.4,23-13,0-23.7,0-36.1,3.9,37.8-3.6,50.5,5.2,77.9,29.1-78.1,28.4-120.7-37.1-146.1-99.7-7.6-13-11.4-18-21.1-29.3,80.2-.9,180.7,26.1,169.9,125.9-40.3-33.6-36.2-23.9-44.1-74.1Z"/>
          <path class="cls-3" d="M1564.1,305.1c42.1,2.3,99.6,21.8,85.5,75-15.7-11.9-14.7-18.2-16.6-35.6-.6,6.3-1.1,11.9-1.3,18.2-12.6-11.8-11.1-12.5-14.2-29.2-.2,5-.1,10.2-.2,15.3-3.5-3.6-7.5-7.2-11.1-10.7-.7-4-1.6-8.1-2.5-12.1l.2,10.4c-2.9-2.7-14.6-11.2-14.6-11.2,1.9,3.3,8.5,6.5,11,11.1l-4.1,1.8c2.5.6,5,1.2,7.6,1.8l10.4,10.9c-6.1-.7-8.1-.2-14,1,5.3.4,10.8,1,16.1,1.5,4.6,3.7,8.4,7.7,12.6,11.8-7,.4-12,.8-18.9,2.1,21.4,2.5,20.4-2.6,38,15.2-55.5,16.7-67.2-39.1-84-77.5Z"/>
          <path class="cls-3" d="M1562.1,134.4c-11.4-12-32.2-24.4-45.7-34.4-1.3,35.8,1.7,92.6,48.9,93.4,6-1.2,9-10.9,10.1-15.6,3.8-16.1-1.8-31.8-13.3-43.5ZM1561.1,181.8c-4.6-5.9-9.8-7.1-16.1-10.3,4.9,1.1,8,2.2,12.8,3.8-7-14.1-9.5-13.9-23.9-19.7,6.4,1.2,8.7,1.9,14.8,4-8.7-15.6-7.9-12-14.7-16,1.4,0,4.1.6,5.4.8-.2-2.2-8.7-17.5-9.7-19.6,0,0,9.1,14.9,10.5,16.6.8-.4.9-8.4,1.5-9-.6,2.2.9,9.7,1.3,11.6,1,4.9,5.4,11,8.3,15.3,0-3.8.7-7.7,1.2-11.4.7,12.5.2,15.4,7,26.4.9-2.5,2-5,3.1-7.5l-1.3,10.1,5.5,12.5c-1.8-2-3.9-5.5-5.7-7.7Z"/>
          <path class="cls-3" d="M1620.9,540.9c-2.3,3.4-5.3,7.6-9.4,8.3h0c-.8-.9-1.3-2-1.5-3.2-2.1-12.7,1.6-20.4,7.6-31.7-3.7,3.8-5.9,9.2-9.6,13.8-2.8-13.6-2.4-16.1,2.2-29-2.1,3-3.8,6.4-5.6,9.6-2.4-10.5-3.7-19.2-2.6-29.8-.6.7-1.2,1.3-1.8,2-1.3-.9-1.7-3.4-2.3-5.3l-.8.6c-.4,3.3,1.7,13.5,2.3,17.6-1.6-.7-4.3-2.3-5.7-2.1,6.6,5.8,7,11.2,7.9,19.8-5.8-3.7-8.2-5.5-14.8-7.5,4.7,3.2,10.5,6.8,14.6,10.5,1.3,4.9,2.2,8.5,3,13.5-3.8-1.9-7.2-3.7-11.2-5.2,15.7,11.8,11.1,11.1,16.1,27.3-52.1-10.5-30.6-73.5-20.5-107.9,24.8,25.6,59.2,62.2,32.1,98.7Z"/>
          <path class="cls-3" d="M1610.3,671c2.3-1.3,5.3-2.8,7.8-2h0c.2.7.1,1.5,0,2.3-2.5,7.9-6.9,11.2-13.6,15.9,3.2-1.1,6.1-3.5,9.6-5.1-2.4,8.6-3.4,9.9-9.7,15.9,2.1-1.1,4-2.5,6-3.8-1.7,6.7-3.5,12-7.2,17.8.5-.2,1.1-.4,1.6-.6.5.9,0,2.5-.2,3.7h.6c1.2-1.9,2.9-8.3,3.8-10.9.7.9,1.8,2.6,2.7,2.9-2.1-5.2-.7-8.4,1.3-13.6,2.2,3.8,3.1,5.5,6.3,8.6-1.8-3.2-4-6.9-5.3-10.3.7-3.2,1.2-5.5,2.2-8.6,1.6,2.2,3.1,4.2,4.9,6.3-5.6-11.3-3.1-9.6-1.2-20.3,26.7,21.3-4,51-19.9,67.7-6.7-21.9-15.7-52.9,10.5-65.9Z"/>
          <path class="cls-3" d="M1406.2,308.3c2,4.4,4.2,9.9,2.4,14.5h0c-1.4.2-2.8,0-4.1-.5-13.8-5.8-19.1-14.2-26.6-27.1,1.5,6,5.4,11.5,7.7,18-15.1-5.6-17.3-7.6-27.2-20.1,1.7,3.9,3.9,7.7,6,11.5-11.8-4.1-21.2-8.2-31-15.8.3,1,.6,2,.9,3-1.7.7-4.4-.5-6.7-1v1.1c3.1,2.4,14.5,6.6,18.9,8.6-1.7,1.1-4.9,2.8-5.6,4.4,9.8-3,15.3,0,24.4,4.5-7.2,3.4-10.5,4.7-16.5,10,6-2.7,13.2-6.2,19.4-7.9,5.7,1.8,9.7,3.1,15.1,5.4-4.2,2.6-8.1,4.9-12,7.8,21.3-8.3,17.9-4.1,36.9.9-42.5,44.9-91.4-15.1-119.2-46.4,40.6-8.7,97.9-20.1,117.2,29.2Z"/>
          <path class="cls-3" d="M1442,517.2c-28.8,50.7-90.9,45.7-132,13.4-8.5-5-14.9-7.7-24-11.2,28.4-12.3,54.7-32.8,86.1-37.3,22.5-3.4,58.3,11,69.4,31.5-10,.4-20.3.9-30.3.7-8.4-5.3-14.8-11.2-22.6-16.9,5.3,6.7,9.5,11.8,15.6,17.8-6.8.3-14.1.7-20.9.6-6.8-5.1-14-11.5-21-15.8,4.9,5.9,9.9,11,15.3,16.4-20.4,1.9-19.2,1.5-34.3-9.4,3.5,3.6,6.6,6.8,10.3,10.3-6.8.5-16.5,2.3-22.2-1.5l-1.7,2.3c-1.7.4-3.4.7-5.2,1.1.9.3,3.7,1.1,4.4,1.5l-.7,2.1c2.1-.4,1.3,0,2.7-1.3,2.7-2.4,13.5-1.4,17.9-1.2-2.6,2.9-5.5,6-8,8.9,4.3-3,8.7-6,13.1-8.9,7.6,0,15.3-.1,22.9-.1-7.7,6.7-11.9,10.4-18.4,18.5,8.7-5.9,16.1-12.7,24.8-18.4l22-.6c-6.6,6.8-12.1,12.1-17.4,20.1,23-21.8,23.1-21.7,54.1-22.6Z"/>
          <path class="cls-3" d="M1418.9,434.1c.3,1.2.6,2.5.8,3.7-21.6-8-37.2-14.4-47.2-33.3,0,0,4.9,10.8,6.5,16.2l-1.1.3c-15.6-3.8-26.1-6.3-33.2-22.3,0,0,2.3,7.9,5.2,13.2-12-1.6-20.8-2.9-27.3-13.6.3,2.3,2.1,5.4,3.1,7.6l-11.8-2.1c2.9,3.2,7,3.2,9.2,6.3-1.1,1.5-2.4,3.4-2.4,3.4,1.2-.4,7.7-2.4,8.5-2.2,3.8,1,17.3,3.1,18.7,6.7-5.3,3.8-14.2,9.1-14.2,9.1,20.3-10.2,26.3-8.5,46.7,0-7.9,3.7-12.3,5.7-19.7,10.5,30.1-11.7,27.8-8.2,58.3,2.7-40.4,34-99.5,17.5-129-22.1-8.1-8.8-17.5-21.2-26-30.9,12.3-1.8,24.5-4.2,36.6-7.1,45.9-15.7,104.4,3.4,118.2,54Z"/>
          <path class="cls-3" d="M1415,404.8"/>
        </g>
        <g>
          <path class="cls-2" d="M1716.2,144.9c-2.4,80-3.8,166.3,13.1,245.7,5.3,23.5,19.5,11.6,32.4,2.1,34-26.4,54.5-65,75-101.9-.7,15.3-7.2,29.5-8.6,47.2,22.1-11.6,43.6-29.3,67.8-36.9-71.4,64.4-175.1,132-165.1,240.6,1.5,32.6,3.2,75.9,48,59.8,50.5-14.6,78.6-62.3,99.9-106.7-2.3,28-17.2,54.7-27.8,80-.7,1.6,0,3.8,1,5.1,2.4,1.9,10.7,1.2,13.7.6,35.4-6.9,71-17,107.3-17-76.8,30.4-184.8,45.1-220.3,131.9-28.1,83-3.3,214.7,99.8,226.6,16,3.2,33,6.2,48.5,11.5,18.3,6.2,28.2,20.4,45.4,27.2,31.4,6.2,61.8-4.7,76.4,34.4-37-38.9-50.9-9.5-91.9-25.1-.2,8.6-2.6,14.1-2.8,21.8,2.6,15.8,28.1,8.6,19,36.4,0,0,6.2-18.7-24-27l-.9.3c-3,5.9.5,16.3,1.4,23.3-22.9-36.4,30.7-74.6-72-76.2,26.1,24.9,10.3,62.2,37.3,71.5,4.2,1.5,16,9.4,13.2,14.6-14.4-11.9-32.6-8.3-39.4-29.2-7.8,10.6-6.2,16.8-2.7,28.8-18.4-22.8,2.9-33.9-7.6-55.1-19.6-31.9-68.8-26.6-99.9-40.8,29.9,22,84.4,52.6,49.8,96.8-5.3-5.6,6-24.2,1.2-34.3-9.7-20.3-31.1-21.6-47.6-29.7-11-5.3-21.8-10.9-31.4-18.2,2.5,19.9,9,28.9,22.6,43.1,9.8,10.2,7,28.7-2.6,38.1,0,0,6.2-22.9-7.4-33-2.7,18.1-14.3,13.4-21.9,31.8h-.9c-.8-25.4,29.5-20.3,2.8-51.2-14.2-18.1-11.5-35.4-11.5-57.6,0-34.1,0-190.8,0-228.1,4.9-152.6-11.8-402.9,10.7-551.5Z"/>
          <g>
            <path class="cls-2" d="M1943.3,172.3c27,13.9-11.1,29.6-24.2,34.1-16.7,4.1-30,3.4-44.7,14.4-3.4,2.6-13.4,13.8-15.7,13.3-10.4-3.4-6.3-19.6-2.8-27,15.2-29.9,55.9-47.5,87.4-34.8Z"/>
            <path class="cls-2" d="M1935.4,205.1c6.3-3.1,13.2-12.5,20-14.3,5.6-1.2,6,13,5.5,16.3-14.1,57-110,57.8-99.4,29.3,29.6-25.1,41.7-15.8,73.9-31.3Z"/>
          </g>
          <g>
            <path class="cls-2" d="M1810,75c8.7-2.8,25.5-3.8,28,7.7-21.5,19.4-31,30-34.2,60.5-41.2,137.3-91.9-32.1,6.1-68.1Z"/>
            <path class="cls-2" d="M1840.2,85.4c38.6-9,28.6,109-40.1,121.6-40.2.3-9-18,2.4-37.9,15.6-35.7,6.8-52.4,37.6-83.7Z"/>
          </g>
          <g>
            <path class="cls-2" d="M1920.8,365.1c13.4,5.8,29,26.4,3.9,25.9-11.5-.2-34.3,7.8-43,15.7-22.1,20-36.3,28.9-65.5,37-48.4-10.4,36.8-109.6,104.6-78.6Z"/>
            <path class="cls-2" d="M1938.8,394.1c27.8,26.8-33.6,74.4-59.2,79-20,5.8-39.4,5.2-57.8-4.9-4.5-3.5-17.7-15.6-7.3-20.5,1.3-.6,14.2-2.6,16.3-2.9,41.1-5.5,64.7-53.8,108-50.7Z"/>
          </g>
          <g>
            <path class="cls-2" d="M1903.3,624.5c34.3,6.4,47,44.2,78.2,55.4,11.6,4.3,25.2,10.5,6.5,20.5-52.9,16.9-114.6-56.9-84.7-75.9Z"/>
            <path class="cls-2" d="M1928.2,606.8c34.6-3.6,92.3,34.9,77,73.9-4.1,6.1-8.5,2.6-12.9-.5-7.8-5.2-20.7-10.2-27.3-16.5-11.2-10.5-16.4-20.3-30-29.2-7.7-6.7-23.7-7.5-27.4-14.4-.8-9,14.4-12.4,20.6-13.3Z"/>
          </g>
          <g>
            <path class="cls-2" d="M1975.1,293.8c-8.4,5.9-22.6,24.2-28.3,24.6-23.8-16.1,4.5-58.7,21.8-71,18-18.2,92.1-41.7,95.8-2.2-34.7,38.2-51.5,25.8-89.3,48.5Z"/>
            <path class="cls-2" d="M2001,289.6c34.6-6.9,46.8-11.5,65.8-41.9,11,1.6,11.8,17.7,10.8,26.3-23.9,105.4-212.3,73.2-76.6,15.5Z"/>
          </g>
          <g>
            <path class="cls-2" d="M1764.3,230.9c11.6,3.4-.1,23.9.3,33.1,1,22.6,9.8,42.2,3.8,65-36.9,27.5-56.5-93.8-4.1-98.1Z"/>
            <path class="cls-2" d="M1780.7,231.5c39.2,12.8,37.8,77.3,8.3,99.9-19.8,11.8-17.2-5.7-13.3-18.1,6.6-20.7-15.8-68.6,5-81.9Z"/>
          </g>
          <g>
            <path class="cls-2" d="M1817.3,659.9c16.9,7.4,20,33.6,27.7,48.4,3.6,6.9,24.1,20.8,6,23.2-29.5-2.7-58.2-53.9-33.7-71.5Z"/>
            <path class="cls-2" d="M1827.6,655.1c29.2-3.9,60.1,47.2,39.6,68.6-7.4,4.7-8.3-3.3-11.9-8.4-17.2-21.5-8.2-32.9-32-54.3-1.9-3.1,1.9-4.8,4.3-5.8Z"/>
          </g>
          <g>
            <path class="cls-2" d="M2098,410.1c11.6,5.9,8.8,18.2,3.3,27.6-15.6,27.1-49,44.1-79.7,44.7-15,1.5-56.4-10.5-46.9-30.6,70.7-3.2,59.2-37.7,123.2-41.8Z"/>
            <path class="cls-2" d="M2079.6,379.4c8.7,3.6,25.5,15.9,18.4,26.7-4.1,1.6-20.6.5-26.3,1.5-19.4,3.3-32.1,13.8-47.8,24.5-101.5,60.1-56-80.6,55.7-52.7Z"/>
          </g>
          <path class="cls-2" d="M1926.2,468.2c3.6.1,6.3.8,7.8,4.2-.9,5.2-9.5,15.7-10.1,22.2,2.7,134.8-72.4-7.2,2.2-26.4Z"/>
          <path class="cls-2" d="M1937.8,472.5c32.5,4.9,23.1,70.3-3.2,81.1-5.4,2.3-13.7,5.2-17.2-1.4,21.2-32.3.9-52.9,20.4-79.7Z"/>
          <path class="cls-2" d="M1812.6,504.4c24.4,6.3,5.6,70.4-37.3,73.5-4.8-.4-11-1.2-11.6-6.9,3.1-5.1,13.3-11.6,17.1-17.3,10.8-19.1,12.1-36.9,31.8-49.4Z"/>
          <path class="cls-2" d="M1796.2,495.5c5.2.3,12.9.5,13.7,7-12.6,11.1-21.2,15.7-27.5,36.9-38.4,82.4-52.4-36.4,13.8-43.9Z"/>
          <g>
            <path class="cls-2" d="M1990.5,552.6c27.4-8.8,54.8,2.6,81.5-8.7,3.3-1.3,18.3-7.2,20.8-5.2,7.8,6.2-1.2,20.4-6.1,26-43.5,41.2-119.7,10-96.3-12Z"/>
            <path class="cls-2" d="M1990.5,550.1c-33.2-4.6,30.3-65.8,85.7-38.9,6.2,3.4,18.6,11.3,15.5,19.6-4.8,4.5-9.2,1.8-16.1,3.3-8.2,1.8-17.6,5.6-25.7,6.5-20.2,2.3-41.9-4.5-59.4,9.5Z"/>
          </g>
        </g>
      </g>
      <g>
        <g>
          <path class="cls-3" d="M462.5,223.5c34.2,13.5,50.7,26,75,39.5,2.8-1,4-15.9,5.7-24.4.4,60,0,290,.1,354,0,6.4,0,12.7-.2,19.1.2,7.9-6.2,12.3-8,19.5-1.4,5.7,6.8,18.3,6.8,18.3,0,0-11.2-8.2-11.9-18.5-8.9,8-.6,14.3-3.1,18.6,0,0-6.3-10.9-6-14.6.4-5.7,5.1-8.9,9.1-12.3,6.1-5.2,6.8-10,7.3-17.5-10.6,10.7-24.3,11.9-36.9,18.9-11.9,7.7-7.6,25.8-7.6,25.8,0,0-3.7-5-4.2-7-9.2-30.8,26.9-25.5,36-47.2-9.5,5.8-14.5,7-25.1,9.8-44.3,8.7-17.8,36.6-55.7,45.4,23-14.3,12.3-29.6,27.1-45.9-10.5-.6-28.9.3-35.1,9.5-8.3,12.4,10.1,13.5-2.3,29.7,2.3-8.6,2.7-10.5-3.1-17.6-13.7,6-13.6,7.8-8.5,21.3-7.5-7.4-10.5-15.7,0-22.2,4.7-2.6,5.6-2.8,5.8-8.3-20.2,4.4-32.7-3.9-49,12.2,7.8-19.3,27.3-14.8,43-18.9,7.4-2.1,15-10.6,23.9-13.7,28.1-6.9,56.9-6.6,70.2-37.4,25.5-55.9,9.1-121.9-45.6-152.2-22.1-13-45.1-29.6-53-55.3,12.1,14.6,26,31.7,44.7,37.9-2.9-11.1-5.3-14-5.1-26.5,4.3,8,7.5,18.6,14.5,26,10,10.4,28.5,23.9,42.8,25.7,19.2,2.4,16.2-34,12.6-44.8-6.4-19.4-24.8-33.5-38.5-47.8,5.1,1.3,37.5,22.1,41.1,14.6,6.4-13.4,7.7-45.9-.3-58.8-15.2-24-43.7-39.8-66.7-54.9Z"/>
          <path class="cls-3" d="M483.5,333.2c-18.9-6.9-17.1-7-23.8-23.4.8,5.3,2,9.7,3.4,14.8-3.4-1.5-7.2-2.9-10.6-4.3-4.2-5.8-5.1-9.4-7.5-16.1.7,4.8,2.1,10.1,3.2,14.9-12.5-4-11.1-3.6-17.3-14.8.9,3.2,2,6.4,3.3,9.5-8.7-2.2-10.1-2.8-14.6-10.5.4,2,.5,2.9.7,4.8-2.8-1-13.8-4-13.8-4,1.6,1.3,14.3,5.2,13.7,6.7-.9,1-3.3,1.9-4.7,2.6,8.7-2.4,9.5-1.1,17.8,2.6-3.8,1.8-7.7,3.5-11.4,5.5,4.5-1.5,8.9-3,13.4-4.5,3.2.8,9.9,3.7,13.2,5-3.1,1.2-12.2,5.2-14.7,7.2l.3.2c5.8-2.4,11.7-4.2,17.7-6.1,3.4,1.1,8.2,3.3,11.6,4.8-6,2.6-11.7,5.7-17.2,9.1,6.8-2.5,13.2-5.4,20-7.9,4.2,1.3,12.3,4.5,16.2,6.3-20.3,18.9-53.8,13-69.2-9.3-8-11.2-13.5-19.5-23.7-29.4,38.3-1.8,85.9-16.5,94,36.3Z"/>
          <path class="cls-3" d="M422.1,291.8"/>
          <path class="cls-3" d="M422.1,291.8"/>
          <path class="cls-3" d="M540.6,224.9c-3.7,6.9-8.1,11.9-14.4,16.4-.7-6.3-1.3-12.1-1.3-18.5,4-5,8.3-8.9,12.5-13.7-5.1,3.5-8.2,5.9-12.8,10-.3-3.8-.3-8-.3-11.9,2.7-4.3,7.9-9.2,11.3-13.5-3.9,3.1-7.8,6.7-11.5,10.1v-14.2c2.7-3.4,5.6-6.4,8.3-10.1-2.5,1.9-5.8,5.2-8.2,7.4-.4-8.8-.8-10.3,2.5-18.3-.7,1-1.9,2.8-2.8,3.2-.7-.8-2-12.4-2-12.4-.3,2.5.5,9.4.6,12.7-1.4-.9-2-2-3.4-2.8,3.5,4.3,4.3,10.4,3.2,15.7,0,0-4.5-3.8-6.9-5.9,1.7,2.3,4,4.8,6.1,6.8,1.2,1.6.4,12.2.3,15-2.9-3.4-7.7-7.3-11.6-9.7,11.7,12.2,12,11.9,11.9,28.7l-12-10.5c12.6,15.4,12.9,9.9,14,31.8-33.1-16.7-24.5-56.1-11.3-83.3,2.1-5.3,4.1-12.5,5.6-18,17.9,23,37.5,55.4,22.3,84.6Z"/>
          <path class="cls-3" d="M431.2,443.5c-18.2,27.3-45.5,18.3-72.5,23.7,13.9-37.2,33.9-76,80.7-58.5-14.6,11.2-19.1,12-36.3,10.3,4.8,2,10,2.7,15.1,3.5-17.2,13.5-11.6,8.5-31.1,10.2l13.3,2.5c-4.2,4.4-9.8,9.2-16.1,8.9,1.6.6,1.7.3,2.2,1.5-2,3.4-7.4,5.8-11.3,6.5l1.1.6c-.4,1.2-.7,1.3-1.5,2.2,1.8.4,10.3-6.3,12.8-7.8.4,2.1-.1,4.7-.4,6.9,3.6-10.4,5.5-10.8,15-16.5-.5,4.7-1.2,9.5-1.9,14.2,4.7-14.7,4.3-18.1,18.6-25.7-1.4,4.6-2.7,11.5-2.2,16.3,3.9-18.2,8-21.5,23.5-31.7.5,11.7-2.7,23.3-9.2,33.1Z"/>
          <path class="cls-3" d="M436.8,498.1c-3.7-29.1-3.1-74.2,37.5-72.4-5.9,11.7-11,16.4-23.3,20v.5c4-.3,7.9-2.2,11.6-2.7l.2.5c-7.7,14.6-5.3,9.6-18.4,17,3.7-.9,6.8-2,10.5-3.2-1.4,3.1-4.1,8.2-5.8,11.1l-6.8,3.2c1.9-.4,4.1-1.1,6-1.7-1.2,3.2-2.7,5.6-3.7,9,1-1.6,2.1-3.9,3.4-4.8l.6.2.4,1.1c0-5.9,2.5-9.1,5.9-13.8.2,2.7.5,4.6,1.6,7.1.6-.6-.4-8.1,0-9.6,1.3-4.3,5.6-10,8.1-13.8.1,4.8,1.2,9.9,2.5,14.5-.7-16.3-.3-20,8.9-33.7,19.7,36.9-18.1,51.2-39.2,71.3Z"/>
          <path class="cls-3" d="M459.6,439.5l.2.3c-.2,0-.4,0-.6,0l.4-.3Z"/>
          <path class="cls-3" d="M459.9,439.9h0s0,0,0,0c0,0,0,0,0,0Z"/>
          <path class="cls-3" d="M438.6,228.8c-.9,3.9,0,15.7.7,20.1-3.4-2.8-8.1-6.3-11.3-9.2-.6-2.4-3.7-17.3-4-17.5-.3,3.5.4,10.6.7,14.3-10-8.1-10.7-7.7-13.9-20.4.1,3.3.3,5.8.7,9.1-2.7-1.8-17.3-11.8-19-12.8,1.2,2.3,14.4,11,16.5,14.1-2.9.6-5.9.8-8.7,1.5,3.4.1,8.2,0,11.4.2,3.7,3.3,7.4,6.7,11,10.2-6-.2-10.3,0-16.2,1.5,18.3.2,18.2-.7,31.9,11.9-6.8,0-12.3,0-18.8,2,19.6-1.9,26.2,2.7,40.5,15.1-40.6,14.7-62.7-19.3-76-51.8-4-6.7-5.9-9.3-11-15.2,41.7-.5,93.9,13.6,88.3,65.4-20.9-17.4-18.8-12.4-22.9-38.5Z"/>
          <path class="cls-3" d="M476.3,271c21.9,1.2,51.8,11.3,44.5,39-8.1-6.2-7.6-9.5-8.6-18.5-.3,3.3-.6,6.2-.7,9.5-6.6-6.2-5.8-6.5-7.4-15.2,0,2.6,0,5.3,0,7.9-1.8-1.9-3.9-3.7-5.8-5.6-.4-2.1-.8-4.2-1.3-6.3v5.4c-1.4-1.4-7.5-5.8-7.5-5.8,1,1.7,4.4,3.4,5.7,5.8l-2.1.9c1.3.3,2.6.6,3.9.9l5.4,5.7c-3.2-.3-4.2,0-7.3.5,2.8.2,5.6.5,8.4.8,2.4,1.9,4.4,4,6.5,6.1-3.6.2-6.3.4-9.8,1.1,11.1,1.3,10.6-1.4,19.7,7.9-28.8,8.7-35-20.3-43.7-40.3Z"/>
          <path class="cls-3" d="M475.3,182.3c-5.9-6.2-16.7-12.7-23.7-17.9-.7,18.6.9,48.1,25.4,48.6,3.1-.6,4.7-5.7,5.2-8.1,2-8.4-.9-16.5-6.9-22.6ZM474.8,207c-2.4-3-5.1-3.7-8.4-5.4,2.5.6,4.2,1.1,6.6,2-3.7-7.3-4.9-7.2-12.4-10.2,3.3.6,4.5,1,7.7,2.1-4.5-8.1-4.1-6.2-7.6-8.3.7,0,2.1.3,2.8.4,0-1.1-4.5-9.1-5-10.2,0,0,4.8,7.7,5.4,8.6.4-.2.5-4.4.8-4.7-.3,1.1.5,5,.7,6,.5,2.6,2.8,5.7,4.3,8,0-2,.3-4,.6-5.9.4,6.5.1,8,3.7,13.7.5-1.3,1-2.6,1.6-3.9l-.7,5.3,2.9,6.5c-.9-1-2-2.8-3-4Z"/>
          <path class="cls-3" d="M505.9,393.6c-1.2,1.8-2.8,3.9-4.9,4.3h0c-.4-.5-.7-1-.8-1.7-1.1-6.6.9-10.6,4-16.5-1.9,2-3.1,4.8-5,7.2-1.5-7-1.2-8.4,1.2-15-1.1,1.6-2,3.3-2.9,5-1.2-5.4-1.9-10-1.4-15.5-.3.4-.6.7-.9,1-.7-.5-.9-1.8-1.2-2.8l-.4.3c-.2,1.7.9,7,1.2,9.1-.8-.4-2.2-1.2-3-1.1,3.4,3,3.6,5.8,4.1,10.3-3-1.9-4.3-2.8-7.7-3.9,2.4,1.6,5.4,3.5,7.6,5.5.7,2.6,1.1,4.4,1.5,7-2-1-3.8-1.9-5.8-2.7,8.2,6.1,5.8,5.8,8.4,14.2-27.1-5.5-15.9-38.2-10.6-56.1,12.9,13.3,30.8,32.3,16.7,51.3Z"/>
          <path class="cls-3" d="M500.3,461.2c1.2-.7,2.7-1.4,4.1-1h0c0,.4,0,.8,0,1.2-1.3,4.1-3.6,5.8-7.1,8.3,1.7-.6,3.2-1.8,5-2.6-1.2,4.5-1.7,5.1-5.1,8.3,1.1-.6,2.1-1.3,3.1-2-.9,3.5-1.8,6.3-3.7,9.2.3-.1.5-.2.8-.3.2.5,0,1.3-.1,1.9h.3c.6-1,1.5-4.3,2-5.6.4.5.9,1.3,1.4,1.5-1.1-2.7-.4-4.4.7-7.1,1.2,2,1.6,2.9,3.3,4.5-.9-1.7-2.1-3.6-2.7-5.4.4-1.7.6-2.8,1.2-4.5.8,1.1,1.6,2.2,2.5,3.3-2.9-5.9-1.6-5-.6-10.6,13.9,11.1-2.1,26.5-10.3,35.2-3.5-11.4-8.1-27.5,5.4-34.2Z"/>
          <path class="cls-3" d="M394.3,272.7c1,2.3,2.2,5.2,1.2,7.5h0c-.7.1-1.4,0-2.1-.3-7.2-3-9.9-7.4-13.8-14.1.8,3.1,2.8,6,4,9.4-7.8-2.9-9-3.9-14.1-10.4.9,2,2,4,3.1,6-6.1-2.1-11-4.3-16.1-8.2.2.5.3,1,.4,1.6-.9.4-2.3-.2-3.5-.5v.6c1.6,1.3,7.5,3.4,9.8,4.5-.9.6-2.5,1.5-2.9,2.3,5.1-1.6,8,0,12.7,2.3-3.7,1.8-5.4,2.5-8.6,5.2,3.1-1.4,6.8-3.2,10.1-4.1,2.9.9,5,1.6,7.9,2.8-2.2,1.3-4.2,2.5-6.3,4.1,11.1-4.3,9.3-2.1,19.2.5-22.1,23.3-47.5-7.9-61.9-24.1,21.1-4.5,50.9-10.4,60.9,15.2Z"/>
          <path class="cls-3" d="M412.9,381.3c-15,26.3-47.3,23.7-68.6,7-4.4-2.6-7.8-4-12.5-5.8,14.8-6.4,28.5-17,44.7-19.4,11.7-1.7,30.3,5.7,36.1,16.4-5.2.2-10.6.5-15.7.4-4.3-2.8-7.7-5.8-11.7-8.8,2.8,3.5,4.9,6.1,8.1,9.3-3.6.1-7.3.4-10.9.3-3.5-2.6-7.3-6-10.9-8.2,2.5,3.1,5.2,5.7,7.9,8.5-10.6,1-10,.8-17.8-4.9,1.8,1.9,3.4,3.6,5.3,5.3-3.5.3-8.6,1.2-11.5-.8l-.9,1.2c-.9.2-1.8.4-2.7.6.4.1,1.9.6,2.3.8l-.4,1.1c1.1-.2.7,0,1.4-.7,1.4-1.3,7-.7,9.3-.6-1.3,1.5-2.8,3.1-4.1,4.6,2.3-1.6,4.5-3.1,6.8-4.6,4,0,7.9,0,11.9,0-4,3.5-6.2,5.4-9.5,9.6,4.5-3,8.4-6.6,12.9-9.5l11.4-.3c-3.5,3.5-6.3,6.3-9,10.4,11.9-11.3,12-11.3,28.1-11.7Z"/>
          <path class="cls-3" d="M400.9,338.1c.2.6.3,1.3.4,1.9-11.2-4.1-19.3-7.5-24.5-17.3,0,0,2.6,5.6,3.4,8.4l-.6.2c-8.1-2-13.5-3.3-17.2-11.6,0,0,1.2,4.1,2.7,6.8-6.3-.8-10.8-1.5-14.2-7.1.2,1.2,1.1,2.8,1.6,3.9l-6.1-1.1c1.5,1.7,3.7,1.7,4.8,3.3-.6.8-1.2,1.7-1.2,1.7.6-.2,4-1.2,4.4-1.1,2,.5,9,1.6,9.7,3.5-2.8,2-7.4,4.7-7.4,4.7,10.5-5.3,13.7-4.4,24.3,0-4.1,1.9-6.4,3-10.2,5.5,15.7-6.1,14.5-4.3,30.3,1.4-21,17.7-51.7,9.1-67.1-11.5-4.2-4.6-9.1-11-13.5-16,6.4-.9,12.8-2.2,19-3.7,23.9-8.2,54.3,1.8,61.4,28.1Z"/>
          <path class="cls-3" d="M398.9,322.9"/>
        </g>
        <g>
          <path class="cls-2" d="M555.4,187.8c-1.3,41.6-2,86.4,6.8,127.7,2.8,12.2,10.1,6,16.8,1.1,17.7-13.7,28.3-33.8,39-53-.4,7.9-3.8,15.3-4.5,24.5,11.5-6,22.7-15.2,35.2-19.2-37.1,33.5-91,68.6-85.8,125,.8,17,1.7,39.5,25,31.1,26.3-7.6,40.9-32.4,51.9-55.4-1.2,14.6-8.9,28.4-14.5,41.6-.3.8,0,2,.5,2.7,1.2,1,5.6.6,7.1.3,18.4-3.6,36.9-8.8,55.8-8.8-39.9,15.8-96.1,23.4-114.5,68.5-14.6,43.2-1.7,111.6,51.9,117.8,8.3,1.7,17.1,3.2,25.2,6,9.5,3.2,14.7,10.6,23.6,14.2,16.3,3.2,32.1-2.5,39.7,17.9-19.2-20.2-26.4-4.9-47.8-13,0,4.5-1.3,7.3-1.4,11.4,1.3,8.2,14.6,4.5,9.9,18.9,0,0,3.2-9.7-12.5-14l-.5.2c-1.6,3.1.3,8.4.7,12.1-11.9-18.9,16-38.8-37.4-39.6,13.6,12.9,5.4,32.3,19.4,37.2,2.2.8,8.3,4.9,6.8,7.6-7.5-6.2-16.9-4.3-20.5-15.2-4,5.5-3.2,8.7-1.4,14.9-9.6-11.8,1.5-17.6-4-28.7-10.2-16.6-35.8-13.8-51.9-21.2,15.6,11.4,43.9,27.4,25.9,50.3-2.7-2.9,3.1-12.6.6-17.8-5-10.6-16.2-11.2-24.8-15.4-5.7-2.7-11.3-5.7-16.3-9.4,1.3,10.4,4.7,15,11.7,22.4,5.1,5.3,3.6,14.9-1.4,19.8,0,0,3.2-11.9-3.9-17.1-1.4,9.4-7.4,7-11.4,16.5h-.5c-.4-13.2,15.4-10.6,1.5-26.6-7.4-9.4-6-18.4-6-29.9,0-17.7,0-99.2,0-118.6,2.5-79.3-6.2-209.4,5.6-286.6Z"/>
          <g>
            <path class="cls-2" d="M673.4,202c14,7.2-5.8,15.4-12.6,17.7-8.7,2.1-15.6,1.8-23.2,7.5-1.8,1.3-7,7.2-8.2,6.9-5.4-1.8-3.3-10.2-1.4-14,7.9-15.5,29.1-24.7,45.4-18.1Z"/>
            <path class="cls-2" d="M669.3,219.1c3.3-1.6,6.9-6.5,10.4-7.4,2.9-.6,3.1,6.8,2.9,8.5-7.3,29.6-57.2,30-51.6,15.2,15.4-13.1,21.7-8.2,38.4-16.3Z"/>
          </g>
          <g>
            <path class="cls-2" d="M604.1,151.4c4.5-1.4,13.3-2,14.6,4-11.2,10.1-16.1,15.6-17.8,31.4-21.4,71.3-47.7-16.7,3.2-35.4Z"/>
            <path class="cls-2" d="M619.8,156.8c20.1-4.7,14.9,56.7-20.8,63.2-20.9.2-4.7-9.3,1.3-19.7,8.1-18.6,3.5-27.3,19.6-43.5Z"/>
          </g>
          <g>
            <path class="cls-2" d="M661.7,302.2c7,3,15.1,13.7,2,13.4-6-.1-17.8,4.1-22.4,8.2-11.5,10.4-18.9,15-34,19.2-25.2-5.4,19.1-56.9,54.4-40.9Z"/>
            <path class="cls-2" d="M671.1,317.3c14.4,13.9-17.5,38.7-30.8,41.1-10.4,3-20.5,2.7-30-2.6-2.4-1.8-9.2-8.1-3.8-10.6.7-.3,7.4-1.4,8.5-1.5,21.3-2.9,33.6-27.9,56.1-26.4Z"/>
          </g>
          <g>
            <path class="cls-2" d="M652.6,437c17.8,3.3,24.4,23,40.6,28.8,6,2.2,13.1,5.4,3.4,10.6-27.5,8.8-59.5-29.6-44-39.4Z"/>
            <path class="cls-2" d="M665.6,427.9c18-1.9,48,18.1,40,38.4-2.1,3.2-4.4,1.4-6.7-.2-4.1-2.7-10.7-5.3-14.2-8.6-5.8-5.5-8.5-10.5-15.6-15.2-4-3.5-12.3-3.9-14.2-7.5-.4-4.7,7.5-6.5,10.7-6.9Z"/>
          </g>
          <g>
            <path class="cls-2" d="M689.9,265.2c-4.4,3.1-11.8,12.6-14.7,12.8-12.4-8.3,2.3-30.5,11.3-36.9,9.4-9.5,47.8-21.6,49.8-1.1-18,19.8-26.8,13.4-46.4,25.2Z"/>
            <path class="cls-2" d="M703.4,263c18-3.6,24.3-6,34.2-21.8,5.7.8,6.2,9.2,5.6,13.7-12.4,54.8-110.4,38-39.8,8.1Z"/>
          </g>
          <g>
            <path class="cls-2" d="M580.4,232.4c6,1.8,0,12.4.1,17.2.5,11.7,5.1,21.9,2,33.8-19.2,14.3-29.4-48.7-2.1-51Z"/>
            <path class="cls-2" d="M588.9,232.8c20.4,6.6,19.7,40.2,4.3,51.9-10.3,6.1-8.9-3-6.9-9.4,3.5-10.8-8.2-35.6,2.6-42.5Z"/>
          </g>
          <g>
            <path class="cls-2" d="M607.9,455.5c8.8,3.9,10.4,17.4,14.4,25.1,1.8,3.6,12.5,10.8,3.1,12-15.3-1.4-30.2-28-17.5-37.2Z"/>
            <path class="cls-2" d="M613.3,452.9c15.2-2,31.2,24.5,20.6,35.7-3.9,2.4-4.3-1.7-6.2-4.4-9-11.2-4.3-17.1-16.6-28.2-1-1.6,1-2.5,2.3-3Z"/>
          </g>
          <g>
            <path class="cls-2" d="M753.8,325.6c6,3,4.6,9.5,1.7,14.4-8.1,14.1-25.5,22.9-41.4,23.2-7.8.8-29.3-5.5-24.4-15.9,36.7-1.7,30.8-19.6,64.1-21.7Z"/>
            <path class="cls-2" d="M744.3,309.7c4.5,1.9,13.3,8.3,9.6,13.9-2.1.9-10.7.3-13.7.8-10.1,1.7-16.7,7.2-24.9,12.7-52.8,31.2-29.1-41.9,29-27.4Z"/>
          </g>
          <path class="cls-2" d="M664.5,355.8c1.9,0,3.3.4,4.1,2.2-.5,2.7-4.9,8.2-5.2,11.5,1.4,70.1-37.6-3.7,1.2-13.7Z"/>
          <path class="cls-2" d="M670.5,358c16.9,2.6,12,36.5-1.7,42.1-2.8,1.2-7.1,2.7-8.9-.7,11-16.8.4-27.5,10.6-41.4Z"/>
          <path class="cls-2" d="M605.5,374.6c12.7,3.3,2.9,36.6-19.4,38.2-2.5-.2-5.7-.6-6-3.6,1.6-2.6,6.9-6,8.9-9,5.6-9.9,6.3-19.2,16.5-25.7Z"/>
          <path class="cls-2" d="M597,370c2.7.1,6.7.2,7.1,3.6-6.6,5.7-11,8.1-14.3,19.2-20,42.8-27.3-18.9,7.2-22.8Z"/>
          <g>
            <path class="cls-2" d="M697.9,399.7c14.2-4.6,28.5,1.4,42.4-4.5,1.7-.7,9.5-3.8,10.8-2.7,4,3.2-.6,10.6-3.2,13.5-22.6,21.4-62.2,5.2-50-6.3Z"/>
            <path class="cls-2" d="M697.9,398.4c-17.2-2.4,15.7-34.2,44.5-20.2,3.2,1.8,9.7,5.9,8.1,10.2-2.5,2.3-4.8.9-8.3,1.7-4.3.9-9.1,2.9-13.4,3.4-10.5,1.2-21.8-2.3-30.9,4.9Z"/>
          </g>
        </g>
      </g>
      <g>
        <path class="cls-3" d="M280.9,757.2h-14l-3.9-11.7h-26l-3.9,11.7h-13.9l22.8-65.2h15.9l22.9,65.2ZM250.1,706.8l-8.9,26.6h17.9l-8.9-26.6Z"/>
        <path class="cls-3" d="M315.9,758.5c-9.8,0-17.9-3.3-24.3-9.8-6.4-6.5-9.6-14.5-9.6-24.1s3.2-17.7,9.6-24.1c6.5-6.5,14.6-9.8,24.3-9.8s11.3,1.4,16.3,4.1c5,2.8,8.9,6.5,11.7,11.2l-11.1,6.4c-1.6-2.9-3.9-5.2-6.9-6.8s-6.3-2.5-10.1-2.5c-6.3,0-11.5,2-15.4,6-3.9,4-5.8,9.2-5.8,15.5s1.9,11.3,5.8,15.4c3.9,4,9,6,15.4,6s7.1-.8,10.1-2.5c3-1.6,5.3-3.9,6.8-6.8l11.1,6.4c-2.8,4.7-6.7,8.5-11.7,11.2-5,2.8-10.4,4.1-16.3,4.1Z"/>
        <path class="cls-3" d="M382.1,758.5c-9.8,0-17.9-3.3-24.3-9.8-6.4-6.5-9.6-14.5-9.6-24.1s3.2-17.7,9.6-24.1c6.5-6.5,14.6-9.8,24.3-9.8s11.3,1.4,16.3,4.1c5,2.8,8.9,6.5,11.7,11.2l-11.1,6.4c-1.6-2.9-3.9-5.2-6.9-6.8s-6.3-2.5-10.1-2.5c-6.3,0-11.5,2-15.4,6-3.9,4-5.8,9.2-5.8,15.5s1.9,11.3,5.8,15.4c3.9,4,9,6,15.4,6s7.1-.8,10.1-2.5c3-1.6,5.3-3.9,6.8-6.8l11.1,6.4c-2.8,4.7-6.7,8.5-11.7,11.2-5,2.8-10.4,4.1-16.3,4.1Z"/>
        <path class="cls-3" d="M472.3,748.8c-6.6,6.5-14.6,9.8-24,9.8s-17.5-3.3-24-9.8c-6.5-6.6-9.8-14.7-9.8-24.1s3.3-17.5,9.8-24c6.6-6.6,14.6-9.9,24-9.9s17.5,3.3,24,9.9c6.6,6.5,9.9,14.5,9.9,24s-3.3,17.5-9.9,24.1ZM433.3,740c4,4,9,6,15,6s11-2,15-6c4-4,6.1-9.2,6.1-15.4s-2-11.3-6.1-15.4c-4-4-9-6.1-15-6.1s-11,2-15,6.1c-4,4-6.1,9.2-6.1,15.4s2,11.3,6.1,15.4Z"/>
        <path class="cls-3" d="M539.9,692v52.9h7v24.8h-12.9v-12.5h-42.9v-65.2h12.9v52.9h23v-52.9h12.9Z"/>
        <path class="cls-3" d="M606.1,757.2h-12.9v-39.8l-27.9,39.8h-9.8v-65.2h12.9v39.9l27.9-39.9h9.8v65.2Z"/>
        <path class="cls-3" d="M674.1,757.2h-14l-3.9-11.7h-26l-3.9,11.7h-13.9l22.8-65.2h15.9l22.9,65.2ZM643.2,706.8l-8.9,26.6h17.9l-8.9-26.6Z"/>
        <path class="cls-3" d="M729.1,692v52.9h7v24.8h-12.9v-12.5h-42.9v-65.2h12.9v52.9h23v-52.9h12.9Z"/>
        <path class="cls-3" d="M795.3,757.2h-12.9v-39.8l-27.9,39.8h-9.8v-65.2h12.9v39.9l27.9-39.9h9.8v65.2Z"/>
        <path class="cls-3" d="M827.3,692h26.1v65.2h-12.9v-22.6h-7.4l-15,22.6h-14.4l15.9-24c-4.2-1.5-7.5-4-10.2-7.6-2.6-3.6-3.9-7.6-3.9-11.9s2.1-11.1,6.3-15.3,9.3-6.3,15.4-6.3ZM827.3,723.3h13.2v-19.3h-13.2c-2.4,0-4.5.9-6.2,2.8-1.7,1.9-2.6,4.1-2.6,6.8s.9,5,2.6,6.8c1.7,1.9,3.8,2.8,6.2,2.8Z"/>
        <path class="cls-1" d="M56.7,824.6c-5.9,0-10.8-1.9-14.6-5.8-3.9-3.9-5.8-8.7-5.8-14.3s1.9-10.4,5.8-14.3c3.8-3.9,8.7-5.8,14.6-5.8s6.8.9,9.8,2.6c3,1.7,5.3,4,7,7l-3.4,2c-1.2-2.4-3-4.3-5.4-5.7-2.4-1.4-5.1-2.1-7.9-2.1-4.9,0-8.9,1.6-11.9,4.7-3.1,3.2-4.6,7.1-4.6,11.6s1.5,8.4,4.6,11.6c3,3.1,7,4.7,11.9,4.7s5.5-.7,7.9-2.1c2.4-1.4,4.2-3.3,5.4-5.7l3.4,1.9c-1.6,2.9-3.9,5.3-6.9,7-3,1.7-6.3,2.6-9.9,2.6Z"/>
        <path class="cls-1" d="M79.9,785h27.8v38.9h-3.9v-35.2h-20v35.2h-3.9v-38.9Z"/>
        <path class="cls-1" d="M120.4,806.1v14.1h18.9v3.7h-22.8v-38.9h22.5v3.7h-18.6v13.8h17.2v3.7h-17.2Z"/>
        <path class="cls-1" d="M173.8,785v35.2h4.2v11.1h-3.9v-7.4h-28.1v-38.9h3.9v35.2h20v-35.2h3.9Z"/>
        <path class="cls-1" d="M213.2,823.9h-3.9v-31.7l-21.7,31.7h-3.3v-38.9h3.9v31.7l21.7-31.7h3.3v38.9Z"/>
        <path class="cls-1" d="M252.1,823.9h-4.1l-3.6-9.6h-18.4l-3.6,9.6h-4.1l14.9-38.9h4l14.9,38.9ZM235.2,789.9l-7.8,20.8h15.7l-7.8-20.8Z"/>
        <path class="cls-1" d="M253.5,823.9v-3.4c2.7.4,4.7-.5,6.1-2.5,1.4-2,2.1-5.8,2.1-11.3v-21.6h25.2v38.9h-3.9v-35.2h-17.4v18.1c0,3.5-.3,6.5-.8,8.8-.6,2.4-1.4,4.2-2.5,5.4-1.1,1.2-2.3,2.1-3.7,2.5s-3,.6-5,.4Z"/>
        <path class="cls-1" d="M324.7,823.9h-3.9v-31.7l-21.7,31.7h-3.3v-38.9h3.9v31.7l21.7-31.7h3.3v38.9Z"/>
        <path class="cls-1" d="M351.7,824.6c-5.9,0-10.8-1.9-14.6-5.8-3.9-3.9-5.8-8.7-5.8-14.3s1.9-10.4,5.8-14.3c3.8-3.9,8.7-5.8,14.6-5.8s6.8.9,9.8,2.6c3,1.7,5.3,4,7,7l-3.4,2c-1.2-2.4-3-4.3-5.4-5.7-2.4-1.4-5.1-2.1-7.9-2.1-4.9,0-8.9,1.6-11.9,4.7-3.1,3.2-4.6,7.1-4.6,11.6s1.5,8.4,4.6,11.6c3,3.1,7,4.7,11.9,4.7s5.5-.7,7.9-2.1c2.4-1.4,4.2-3.3,5.4-5.7l3.4,1.9c-1.6,2.9-3.9,5.3-6.9,7-3,1.7-6.3,2.6-9.9,2.6Z"/>
        <path class="cls-1" d="M371.1,785h27.8v3.7h-11.9v35.2h-3.9v-35.2h-11.9v-3.7Z"/>
        <path class="cls-1" d="M434.4,818.7c-3.9,3.9-8.7,5.8-14.3,5.8s-10.4-1.9-14.3-5.8c-3.9-4-5.8-8.7-5.8-14.3s1.9-10.3,5.8-14.2c3.9-3.9,8.6-5.9,14.3-5.9s10.4,2,14.3,5.9c3.9,3.9,5.8,8.6,5.8,14.2s-1.9,10.3-5.8,14.3ZM408.5,816.1c3.1,3.1,7,4.7,11.6,4.7s8.4-1.6,11.6-4.7,4.7-7,4.7-11.6-1.6-8.4-4.7-11.6c-3.1-3.2-7-4.8-11.6-4.8s-8.4,1.6-11.6,4.8c-3.1,3.1-4.7,7-4.7,11.6s1.6,8.5,4.7,11.6Z"/>
        <path class="cls-1" d="M468.4,803.7c1.9.8,3.4,2.1,4.6,3.7,1.1,1.7,1.7,3.5,1.7,5.6,0,3-1.1,5.6-3.2,7.7-2.1,2.1-4.7,3.2-7.7,3.2h-16.9v-38.9h15.7c2.9,0,5.3,1,7.4,3.1,2,2,3.1,4.5,3.1,7.3s-1.5,6.4-4.6,8.3ZM462.5,788.7h-11.8v13.6h11.8c1.8,0,3.3-.6,4.6-1.9,1.3-1.4,1.9-3,1.9-4.8s-.6-3.4-1.9-4.8c-1.3-1.3-2.8-2-4.6-2ZM450.8,820.2h13.1c1.9,0,3.6-.7,4.9-2.1,1.4-1.4,2.1-3.1,2.1-5.1s-.7-3.7-2.1-5.1c-1.3-1.4-3-2.1-4.9-2.1h-13.1v14.3Z"/>
        <path class="cls-1" d="M524.1,823.9h-3.9v-31.7l-21.7,31.7h-3.3v-38.9h3.9v31.7l21.7-31.7h3.3v38.9Z"/>
        <path class="cls-1" d="M546.9,785h27.8v38.9h-3.9v-35.2h-20v35.2h-3.9v-38.9Z"/>
        <path class="cls-1" d="M583.6,785h13.9c3.5,0,6.4,1.2,8.7,3.5,2.3,2.3,3.5,5.2,3.5,8.7s-1.2,6.4-3.5,8.7-5.2,3.5-8.7,3.5h-10v14.4h-3.9v-38.9ZM587.5,805.8h10c2.4,0,4.4-.8,5.9-2.4,1.6-1.6,2.4-3.6,2.4-6.2s-.8-4.5-2.4-6.1c-1.6-1.6-3.5-2.4-5.9-2.4h-10v17.1Z"/>
        <path class="cls-1" d="M648.2,818.7c-3.9,3.9-8.7,5.8-14.3,5.8s-10.4-1.9-14.3-5.8c-3.9-4-5.8-8.7-5.8-14.3s1.9-10.3,5.8-14.2c3.9-3.9,8.6-5.9,14.3-5.9s10.4,2,14.3,5.9c3.9,3.9,5.8,8.6,5.8,14.2s-1.9,10.3-5.8,14.3ZM622.4,816.1c3.1,3.1,7,4.7,11.6,4.7s8.4-1.6,11.6-4.7c3.1-3.1,4.7-7,4.7-11.6s-1.6-8.4-4.7-11.6c-3.1-3.2-7-4.8-11.6-4.8s-8.4,1.6-11.6,4.8c-3.1,3.1-4.7,7-4.7,11.6s1.6,8.5,4.7,11.6Z"/>
        <path class="cls-1" d="M689.6,823.9h-3.9v-31.7l-21.7,31.7h-3.3v-38.9h3.9v31.7l21.7-31.7h3.3v38.9Z"/>
        <path class="cls-1" d="M716.5,803.8c2.1.8,3.8,2.1,5,3.7,1.2,1.7,1.8,3.6,1.8,5.9,0,3.3-1.2,5.9-3.7,8.1-2.4,2.1-5.7,3.1-9.8,3.1s-6.5-.8-8.7-2.4c-2.3-1.6-3.9-3.7-4.8-6.4l3.3-1.9c.5,2.1,1.6,3.8,3.3,5.1s4,1.9,6.9,1.9,5.3-.7,7-2.1c1.7-1.4,2.6-3.2,2.6-5.4s-.8-4.1-2.3-5.4c-1.6-1.4-3.7-2.1-6.3-2.1h-4.4v-3.7h3.1c2.6,0,4.7-.7,6.3-2,1.6-1.3,2.3-3,2.3-5.2s-.8-3.8-2.3-5.1c-1.5-1.3-3.6-1.9-6.1-1.9-4.8,0-7.9,2-9.4,6.1l-3.2-1.9c2.1-5.3,6.4-7.9,12.7-7.9s6.6,1,8.9,3.1c2.3,2,3.4,4.6,3.4,7.7s-1.8,6.8-5.3,8.7Z"/>
        <path class="cls-1" d="M751.5,803.7c1.9.8,3.4,2.1,4.6,3.7,1.1,1.7,1.7,3.5,1.7,5.6,0,3-1.1,5.6-3.2,7.7-2.1,2.1-4.7,3.2-7.7,3.2h-16.9v-38.9h15.7c2.9,0,5.3,1,7.4,3.1,2,2,3.1,4.5,3.1,7.3s-1.5,6.4-4.6,8.3ZM745.6,788.7h-11.8v13.6h11.8c1.8,0,3.3-.6,4.6-1.9,1.3-1.4,1.9-3,1.9-4.8s-.6-3.4-1.9-4.8c-1.3-1.3-2.8-2-4.6-2ZM733.8,820.2h13.1c1.9,0,3.6-.7,4.9-2.1,1.4-1.4,2.1-3.1,2.1-5.1s-.7-3.7-2.1-5.1c-1.3-1.4-3-2.1-4.9-2.1h-13.1v14.3Z"/>
        <path class="cls-1" d="M796.6,818.7c-3.9,3.9-8.7,5.8-14.3,5.8s-10.4-1.9-14.3-5.8c-3.9-4-5.8-8.7-5.8-14.3s1.9-10.3,5.8-14.2c3.9-3.9,8.6-5.9,14.3-5.9s10.4,2,14.3,5.9c3.9,3.9,5.8,8.6,5.8,14.2s-1.9,10.3-5.8,14.3ZM770.7,816.1c3.1,3.1,7,4.7,11.6,4.7s8.4-1.6,11.6-4.7c3.1-3.1,4.7-7,4.7-11.6s-1.6-8.4-4.7-11.6c-3.1-3.2-7-4.8-11.6-4.8s-8.4,1.6-11.6,4.8c-3.1,3.1-4.7,7-4.7,11.6s1.6,8.5,4.7,11.6Z"/>
        <path class="cls-1" d="M835.2,785v35.2h4.2v11.1h-3.9v-7.4h-27.8v7.4h-3.9v-11.1h3.2c2.6-3,3.8-7.6,3.8-13.9v-21.3h24.4ZM811.6,820.2h19.7v-31.6h-16.6v17.8c0,6.1-1,10.7-3.1,13.8Z"/>
        <path class="cls-1" d="M874.6,823.9h-3.9v-31.7l-21.7,31.7h-3.3v-38.9h3.9v31.7l21.7-31.7h3.3v38.9Z"/>
        <path class="cls-1" d="M880.2,785h27.8v3.7h-11.9v35.2h-3.9v-35.2h-11.9v-3.7Z"/>
        <path class="cls-1" d="M917.4,806.1v14.1h18.9v3.7h-22.8v-38.9h22.5v3.7h-18.6v13.8h17.2v3.7h-17.2Z"/>
        <path class="cls-1" d="M939.4,823.9v-3.4c2.7.4,4.7-.5,6.1-2.5,1.4-2,2.1-5.8,2.1-11.3v-21.6h25.2v38.9h-3.9v-35.2h-17.4v18.1c0,3.5-.3,6.5-.8,8.8-.6,2.4-1.4,4.2-2.5,5.4-1.1,1.2-2.3,2.1-3.7,2.5-1.4.4-3,.6-5,.4Z"/>
        <path class="cls-1" d="M985.5,806.1v14.1h18.9v3.7h-22.8v-38.9h22.5v3.7h-18.6v13.8h17.2v3.7h-17.2Z"/>
        <path class="cls-1" d="M1040,823.9h-3.9v-31.7l-21.7,31.7h-3.3v-38.9h3.9v31.7l21.7-31.7h3.3v38.9ZM1032.7,780.6h-14.4v-3.2h14.4v3.2Z"/>
        <path class="cls-1" d="M84.4,870.6l19.2,20h-5.1l-18.2-18.8v18.8h-3.9v-38.9h3.9v17.8l17.7-17.8h5.1l-18.7,18.9Z"/>
        <path class="cls-1" d="M137.5,885.4c-3.9,3.9-8.7,5.8-14.3,5.8s-10.4-1.9-14.3-5.8c-3.9-4-5.8-8.7-5.8-14.3s1.9-10.3,5.8-14.2c3.9-3.9,8.6-5.9,14.3-5.9s10.4,2,14.3,5.9c3.9,3.9,5.8,8.6,5.8,14.2s-1.9,10.3-5.8,14.3ZM111.7,882.8c3.1,3.1,7,4.7,11.6,4.7s8.4-1.6,11.6-4.7,4.7-7,4.7-11.6-1.6-8.4-4.7-11.6c-3.1-3.2-7-4.8-11.6-4.8s-8.4,1.6-11.6,4.8c-3.1,3.1-4.7,7-4.7,11.6s1.6,8.5,4.7,11.6Z"/>
        <path class="cls-1" d="M169.8,886.2v4.4h-3.9v-4.4c-5.7-.3-10.2-1.7-13.6-4.3-3.4-2.6-5.1-6.2-5.1-10.8s1.7-8.1,5.1-10.8c3.4-2.6,7.9-4,13.6-4.3v-4.4h3.9v4.4c5.7.3,10.2,1.7,13.6,4.3,3.4,2.6,5.2,6.2,5.2,10.8s-1.7,8.2-5.2,10.8c-3.3,2.6-7.9,4-13.6,4.3ZM166,882.7v-23c-4.6.2-8.3,1.3-10.9,3.3-2.6,2-3.9,4.7-3.9,8.2s1.3,6.2,3.9,8.2c2.6,2,6.3,3.1,10.9,3.3ZM169.8,859.6v23c4.6-.2,8.3-1.3,10.9-3.3,2.6-2,3.9-4.7,3.9-8.2s-1.3-6.2-3.9-8.2c-2.6-2-6.3-3.1-10.9-3.3Z"/>
        <path class="cls-1" d="M198.6,872.8v14.1h18.9v3.7h-22.8v-38.9h22.5v3.7h-18.6v13.8h17.2v3.7h-17.2Z"/>
        <path class="cls-1" d="M253,890.6h-3.9v-31.7l-21.7,31.7h-3.3v-38.9h3.9v31.7l21.7-31.7h3.3v38.9ZM245.8,847.3h-14.4v-3.2h14.4v3.2Z"/>
        <path class="cls-1" d="M286.9,868.8v-17.1h3.9v38.9h-3.9v-18.2h-21.1v18.2h-3.9v-38.9h3.9v17.1h21.1Z"/>
        <path class="cls-1" d="M331.9,885.4c-3.9,3.9-8.7,5.8-14.3,5.8s-10.4-1.9-14.3-5.8c-3.9-4-5.8-8.7-5.8-14.3s1.9-10.3,5.8-14.2c3.9-3.9,8.6-5.9,14.3-5.9s10.4,2,14.3,5.9c3.9,3.9,5.8,8.6,5.8,14.2s-1.9,10.3-5.8,14.3ZM306,882.8c3.1,3.1,7,4.7,11.6,4.7s8.4-1.6,11.6-4.7,4.7-7,4.7-11.6-1.6-8.4-4.7-11.6c-3.1-3.2-7-4.8-11.6-4.8s-8.4,1.6-11.6,4.8c-3.1,3.1-4.7,7-4.7,11.6s1.6,8.5,4.7,11.6Z"/>
        <path class="cls-1" d="M373.3,890.6h-3.9v-31.7l-21.7,31.7h-3.3v-38.9h3.9v31.7l21.7-31.7h3.3v38.9ZM366.1,847.3h-14.4v-3.2h14.4v3.2Z"/>
        <path class="cls-1" d="M425,890.6h-3.9v-31.7l-21.7,31.7h-3.3v-38.9h3.9v31.7l21.7-31.7h3.3v38.9Z"/>
        <path class="cls-1" d="M469.7,870.5v-18.8h3.9v38.9h-3.9v-16.4c-3.4,1.7-6.9,2.5-10.6,2.5s-6.6-1-8.9-3.1c-2.2-2.1-3.3-4.7-3.3-8v-13.9h3.9v13.9c0,2.3.7,4.1,2.2,5.4,1.5,1.4,3.5,2,6.1,2s7.2-.8,10.6-2.5Z"/>
        <path class="cls-1" d="M512.5,890.6h-4.1l-3.6-9.6h-18.4l-3.6,9.6h-4.1l14.9-38.9h4l14.9,38.9ZM495.5,856.5l-7.8,20.8h15.7l-7.8-20.8Z"/>
        <path class="cls-1" d="M546.4,890.6h-3.9v-31.7l-21.7,31.7h-3.3v-38.9h3.9v31.7l21.7-31.7h3.3v38.9ZM539.2,847.3h-14.4v-3.2h14.4v3.2Z"/>
        <path class="cls-1" d="M580.3,868.8v-17.1h3.9v38.9h-3.9v-18.2h-21.1v18.2h-3.9v-38.9h3.9v17.1h21.1Z"/>
        <path class="cls-1" d="M625.2,885.4c-3.9,3.9-8.7,5.8-14.3,5.8s-10.4-1.9-14.3-5.8c-3.9-4-5.8-8.7-5.8-14.3s1.9-10.3,5.8-14.2c3.9-3.9,8.6-5.9,14.3-5.9s10.4,2,14.3,5.9c3.9,3.9,5.8,8.6,5.8,14.2s-1.9,10.3-5.8,14.3ZM599.4,882.8c3.1,3.1,7,4.7,11.6,4.7s8.4-1.6,11.6-4.7c3.1-3.1,4.7-7,4.7-11.6s-1.6-8.4-4.7-11.6c-3.1-3.2-7-4.8-11.6-4.8s-8.4,1.6-11.6,4.8c-3.1,3.1-4.7,7-4.7,11.6s1.6,8.5,4.7,11.6Z"/>
        <path class="cls-1" d="M666.6,890.6h-3.9v-31.7l-21.7,31.7h-3.3v-38.9h3.9v31.7l21.7-31.7h3.3v38.9ZM659.4,847.3h-14.4v-3.2h14.4v3.2Z"/>
        <path class="cls-1" d="M718.3,890.6h-3.9v-31.7l-21.7,31.7h-3.3v-38.9h3.9v31.7l21.7-31.7h3.3v38.9Z"/>
        <path class="cls-1" d="M752.2,868.8v-17.1h3.9v38.9h-3.9v-18.2h-21.1v18.2h-3.9v-38.9h3.9v17.1h21.1Z"/>
        <path class="cls-1" d="M792.8,851.7v35.2h4.2v11.1h-3.9v-7.4h-27.8v7.4h-3.9v-11.1h3.2c2.6-3,3.8-7.6,3.8-13.9v-21.3h24.4ZM769.2,886.9h19.7v-31.6h-16.6v17.8c0,6.1-1,10.7-3.1,13.8Z"/>
        <path class="cls-1" d="M814.7,875.6l10.2-23.9h4l-12.9,30.4c-1.3,3.1-2.9,5.4-4.9,6.7-2,1.4-4.5,2-7.4,1.8v-3.6c2.1.2,3.8,0,5.1-.9,1.4-.8,2.5-2.3,3.4-4.4l.8-1.8-13.4-28.2h4l11.2,23.9Z"/>
        <path class="cls-1" d="M849.8,891.3c-5.9,0-10.8-1.9-14.6-5.8-3.9-3.9-5.8-8.7-5.8-14.3s1.9-10.4,5.8-14.3c3.8-3.9,8.7-5.8,14.6-5.8s6.8.9,9.8,2.6c3,1.7,5.3,4,7,7l-3.4,2c-1.2-2.4-3-4.3-5.4-5.7-2.4-1.4-5.1-2.1-7.9-2.1-4.9,0-8.9,1.6-11.9,4.7-3.1,3.2-4.6,7.1-4.6,11.6s1.5,8.4,4.6,11.6c3,3.1,7,4.7,11.9,4.7s5.5-.7,7.9-2.1c2.4-1.4,4.2-3.3,5.4-5.7l3.4,1.9c-1.6,2.9-3.9,5.3-6.9,7-3,1.7-6.3,2.6-9.9,2.6Z"/>
        <path class="cls-1" d="M869.2,851.7h27.8v3.7h-11.9v35.2h-3.9v-35.2h-11.9v-3.7Z"/>
        <path class="cls-1" d="M902.5,851.7h13.9c3.5,0,6.4,1.2,8.7,3.5,2.3,2.3,3.5,5.2,3.5,8.7s-1.2,6.4-3.5,8.7-5.2,3.5-8.7,3.5h-10v14.4h-3.9v-38.9ZM906.4,872.5h10c2.4,0,4.4-.8,5.9-2.4,1.6-1.6,2.4-3.6,2.4-6.2s-.8-4.5-2.4-6.1c-1.6-1.6-3.5-2.4-5.9-2.4h-10v17.1Z"/>
        <path class="cls-1" d="M964.2,890.6h-3.9v-31.7l-21.7,31.7h-3.3v-38.9h3.9v31.7l21.7-31.7h3.3v38.9Z"/>
        <path class="cls-1" d="M1002,890.6h-3.9v-31.7l-21.7,31.7h-3.3v-38.9h3.9v31.7l21.7-31.7h3.3v38.9Z"/>
      </g>
    </g>
  </g>
</svg>